<svg viewBox="0 0 512 512" xmlns="http://www.w3.org/2000/svg">
  <path d="M490.563 512H21.437C9.703 512 0 502.519 0 490.554V21.446C0 9.481 9.477 0 21.437 0h469.126C502.297 0 512 9.481 512 21.446V490.78c-.226 11.739-9.703 21.22-21.437 21.22" style="fill:#00AB84;"/>
  <path d="M341.409 328.466c-1.129-13.094 9.928-24.156 23.016-23.027 10.38.903 18.729 9.256 19.406 19.64 1.128 13.094-9.929 24.156-23.017 23.027-10.38-.903-18.728-9.256-19.405-19.64m-216.85-60.501 11.508-110.166c1.805-16.254 15.344-28.67 31.817-28.67h176.684c16.246 0 30.011 12.416 31.816 28.67l11.508 110.166zm4.062 60.5c-1.129-13.093 9.928-24.155 23.016-23.026 10.38.903 18.729 9.256 19.406 19.64 1.128 13.094-9.929 24.156-23.017 23.027-10.154-.903-18.729-9.256-19.405-19.64m286.35-56.663-14.668-138.836c-3.385-32.507-30.914-57.34-63.407-57.34H175.33c-32.72 0-60.023 24.833-63.408 57.34L97.255 271.802c-.451 4.515-.677 9.03-.677 13.32v94.815c0 5.869 4.739 10.61 10.606 10.61h10.605v37.474c0 5.87 4.739 10.61 10.606 10.61h32.042c5.867 0 10.606-4.74 10.606-10.61v-37.474h170.14v37.474c0 5.87 4.739 10.61 10.605 10.61h32.043c5.867 0 10.605-4.74 10.605-10.61v-37.474h10.606a10.595 10.595 0 0 0 10.605-10.61v-94.815c0-4.29-.225-8.805-.677-13.32" style="fill:#ffffff;"/>
</svg>
